/* XPM */
static char *eb32ac25a46d40a7e93595f6b04b9fe2uNVhknh9xaHshx0n[] = {
/* columns rows colors chars-per-pixel */
"64 64 252 2 ",
"   c #0D0906",
".  c #090807",
"X  c #130A07",
"o  c #130C09",
"O  c #1B0D0A",
"+  c #150805",
"@  c #15110D",
"#  c #1B120E",
"$  c #0D1213",
"%  c #1B1511",
"&  c #1D1914",
"*  c #161717",
"=  c #0B0F12",
"-  c #210F0D",
";  c #23120D",
":  c #29170F",
">  c #241612",
",  c #231B14",
"<  c #2B1A14",
"1  c #251C17",
"2  c #321D17",
"3  c #2B231D",
"4  c #27211B",
"5  c #34241C",
"6  c #3B241B",
"7  c #3A2619",
"8  c #1E3537",
"9  c #1E2C29",
"0  c #272A28",
"q  c #342A24",
"w  c #392C26",
"e  c #38322C",
"r  c #263535",
"t  c #3D3D3C",
"y  c #3A3733",
"u  c #25302E",
"i  c #4A2C1D",
"p  c #45291B",
"a  c #56331B",
"s  c #4D321B",
"d  c #643C1D",
"f  c #442D22",
"g  c #4A2B22",
"h  c #4A3325",
"j  c #46342A",
"k  c #4B362A",
"l  c #4D3A2C",
"z  c #463625",
"x  c #523B2D",
"c  c #5C3B2E",
"v  c #563627",
"b  c #433A34",
"n  c #4B3B35",
"m  c #543D31",
"M  c #5B3D33",
"N  c #543932",
"B  c #572E2A",
"V  c #643C34",
"C  c #693E2E",
"Z  c #73461E",
"A  c #58482C",
"S  c #4B443C",
"D  c #494339",
"F  c #5C4235",
"G  c #5C4539",
"H  c #554638",
"J  c #48402D",
"K  c #7C4D23",
"L  c #754925",
"P  c #64512D",
"I  c #7E5129",
"U  c #63463A",
"Y  c #654A3D",
"T  c #6B4B3C",
"R  c #694835",
"E  c #6B523A",
"W  c #755335",
"Q  c #74543B",
"!  c #7A563A",
"~  c #7C5A3D",
"^  c #795738",
"/  c #6C462D",
"(  c #213E42",
")  c #244547",
"_  c #264E53",
"`  c #2B575C",
"'  c #365A5E",
"]  c #1E4447",
"[  c #444442",
"{  c #4D4C4A",
"}  c #4C4843",
"|  c #534E4A",
" . c #574C44",
".. c #54514D",
"X. c #5B544D",
"o. c #5A5146",
"O. c #5A5552",
"+. c #5D5954",
"@. c #575653",
"#. c #535554",
"$. c #6A4D41",
"%. c #654E41",
"&. c #774C44",
"*. c #6C5344",
"=. c #66564B",
"-. c #725443",
";. c #755A44",
":. c #7C5C43",
">. c #7C5D4B",
",. c #765848",
"<. c #645C53",
"1. c #625E5A",
"2. c #6A5D55",
"3. c #795D51",
"4. c #7D614C",
"5. c #7D6046",
"6. c #6B635B",
"7. c #66615B",
"8. c #7D6553",
"9. c #766458",
"0. c #4D6666",
"q. c #6B6763",
"w. c #786D65",
"e. c #7C736B",
"r. c #804F24",
"t. c #84542A",
"y. c #845427",
"u. c #825C3C",
"i. c #855A35",
"p. c #89613E",
"a. c #825E42",
"s. c #855B4D",
"d. c #845C53",
"f. c #965252",
"g. c #B35A5B",
"h. c #846145",
"j. c #8A6344",
"k. c #84644B",
"l. c #8A664A",
"z. c #8B694D",
"x. c #87694C",
"c. c #916B4D",
"v. c #826552",
"b. c #856954",
"n. c #8B6C53",
"m. c #856B5A",
"M. c #8B6D5A",
"N. c #8C6455",
"B. c #926C54",
"V. c #966858",
"C. c #8D725D",
"Z. c #8E7156",
"A. c #937156",
"S. c #93735C",
"D. c #9B755B",
"F. c #A4725A",
"G. c #886E61",
"H. c #897465",
"J. c #937562",
"K. c #9B7B64",
"L. c #977A68",
"P. c #957E71",
"I. c #867A74",
"U. c #A67A66",
"Y. c #B87C6C",
"T. c #AD6763",
"R. c #C77270",
"E. c #9C816C",
"W. c #95806F",
"Q. c #9B8473",
"!. c #9E8A7C",
"~. c #988577",
"^. c #87817C",
"/. c #A7836C",
"(. c #B5846C",
"). c #A38977",
"_. c #B88975",
"`. c #BB927A",
"'. c #A7907E",
"]. c #C58C77",
"[. c #C7947B",
"{. c #D28C7B",
"}. c #718989",
"|. c #9A8E86",
" X c #9B938A",
".X c #8F908E",
"XX c #A69689",
"oX c #B69785",
"OX c #A59890",
"+X c #B3A398",
"@X c #ACA9A5",
"#X c #B6ABA5",
"$X c #BCB9B5",
"%X c #B5B3AE",
"&X c #93A3A0",
"*X c #C99884",
"=X c #D19C83",
"-X c #D69886",
";X c #D78882",
":X c #E3998B",
">X c #C9A28A",
",X c #D4A38A",
"<X c #DAA48B",
"1X c #D8A68A",
"2X c #C8A896",
"3X c #D9AC95",
"4X c #D9B399",
"5X c #D7B08F",
"6X c #E6A88E",
"7X c #E3AD93",
"8X c #E8AB96",
"9X c #E2B296",
"0X c #E3B59B",
"qX c #ECB49B",
"wX c #EBBB9D",
"eX c #E7B79A",
"rX c #F2B79D",
"tX c #DBBBA8",
"yX c #C5BEB7",
"uX c #C9B4A8",
"iX c #EBBDA2",
"pX c #E7BAA5",
"aX c #F2BCA2",
"sX c #F0BBAB",
"dX c #E3BDB0",
"fX c #CBC3BB",
"gX c #D6C6BA",
"hX c #EDC2A5",
"jX c #ECC5AB",
"kX c #EAC7AC",
"lX c #F3C4AA",
"zX c #F3CBAC",
"xX c #F5C5A7",
"cX c #EBC9B3",
"vX c #F3CDB3",
"bX c #F1C5B3",
"nX c #F4D2B4",
"mX c #F5D5BA",
"MX c #F7D9BD",
"NX c #F8D8BD",
"BX c #F1D1B5",
"VX c #D3CDC5",
"CX c #D6D3CC",
"ZX c #D4D2CE",
"AX c #F7DDC2",
"SX c #F8DDC2",
"DX c #E0D9D3",
"FX c #F7E2C6",
"GX c #F9E1C6",
"HX c #F8E3C8",
"JX c #E1E3DE",
"KX c #E6E8E6",
/* pixels */
"2 < < 7 i v v v p a C / C v i s W :.3.9.G.Z.S.J.G.G.G.J.v.v.C.W.~.M.x.m.H.M.m.m.a.8.8.v.m.m.x.;.;.Q ~ ;.~ Q Q W :.~ ~ ;.~ ;.=.E ",
"5 v A v s v / W / s f R ;.:.>.H.+XQ.A.E.+X).S.L.!.P.S.J.~.!.L.n.H.P.C.a.:.k.m.H.M.k.:.:.a.4.4.a.8.:.:.4.~ ;.:.~ ;.! ~ Q ! Q E Q ",
"C v v c v i h c Q :.H.XX).P.J.A.n.|.OX/.S.XXOX!.B.W.|.~.l.M.L.W.j.h.m.C.Z.n.z.l.G.C.Z.m.l.~ ! ! ~ -.-.;.:.-.;.~ Q Q W E ^ W E W ",
"h g g h W a.J.|.H.P.P.B.Q.OXXXA.S.J.L.~.|.S.Z.~. XJ.b.H.|.Z.l.n.H.b.h.h.h.b.M.l.a.~ :.h.8.5.~ ~ ^ W W W E E E R W W W W W W W W ",
"/ R -.8.H.!.Q.b.L.L.!.OXU.D.Q.+XL.L.L.E.L.!.~.B.n.W.L.p.A.J.J.l.z.M.M.z.l.j.k.8.l.h.~ u.:.:.a.4.a.:.! W W ^ W W W W W W ^ Q Q ^ ",
"G.~.E.n.K.S.~.@XK.B.J.).!.XX!.n.Q.XX).n.A.K.E.H.n.z.A.H.B.z.n.C.l.l.z.k.x.z.j.u.k.h.h.k.^ W ! u.:.:.:.a.;.u.~ ~ ! ! Q E ~ ;.Q ^ ",
"!.J.~.@XK.A.S.E.XXOX!.M.L.K.Q.OXS.n.L.XXD.A.Z.C.M.M.n.M.M.z.l.l.x.x.z.z.u.h.x.l.h.u.~ a.l.k.a.u.~ ~ ~ ~ ~ ~ ~ Q ! ;.;.~ ~ Q Q ^ ",
"A.D.K.Q.!.XXXXE.S.M.Q.@XE.K.K.S.L.Q.L.h.Z.L.Z.k.b.z.z.n.z.l.l.l.x.k.h.h.n.u.u.k.l.z.l.u.:.:.5.h.5.u.u.~ i.~ ~ ~ ~ Q ^ ~ ~ Q W ^ ",
"~.XX).S.K.D.).@XL.!.E.z.J.Q.P.m.A.l.C.|.M.l.b.C.l.l.z.z.4.k.l.h.h.z.l.u.u.z.z.u.4.a.h.k.5.a.a.h.u.k.x.l.p.~ ~ ~ ~ ~ ! ^ ! Q ~ Q ",
").L.!.@X/./.L.k.C.P.Q.W.).A.b.J.z.Z.M.a.z.S.A.p.n.z.l.z.z.z.l.k.z.k.k.z.h.u.a.4.a.~ ~ h.k.x.h.u.h.5.a.h.v.x.h.a.h.4.5.u.~ ;.;.;.",
"E.K.S.A.S.Q.Q.L.L.n.n.S.n.~.Q.c.h.z.M.M.A.j.z.H.h.j.l.x.:.k.h.~ h.x.:.:.k.h.u.u.8.:.~ u.>.a.h.k.5.u.~ :.:.h.h.5.4.4.:.a.;.-.Q Q ",
"S.XXXXD.E.M.n.S.B.~.!.D.n.n.n.Z.~.M.h.l.j.M.M.u.k.n.x.a.n.k.h.h.h.k.x.l.~ a.j.j.^ :.4.4.u.~ :.h.k.z.x.h.u.u.u.h.a.~ ~ :.! ! ~ ;.",
"K.K.K.E.).P.L.K.c.z.l.x.|.J.n.M.u.b.M.b.M.l.k.v.n.h.a.b.;.a.h.h.4.k.k.:.l.h.a.~ k.a.~ :.4.h.a.~ ~ :.:.>.8.x.k.4.a.~ :.j.~ 4.x.:.",
"XX/.D.A.c.A.A.B.!.J.M.M.h.z.A.S.M.b.l.k.M.b.z.z.~ b.b.~ h.a.a.k.j.h.h.j.h.l.k.a.~ a.h.h.~ :.4.k.~ :.:.;.8.9.8.m.m.v.v.b.b.m.9.,.",
"E.K.E.).J.J.M.h.n.l.b.H.l.C.C.h.l.h.b.L.l.l.l.j.m.a.~ h.a.a.:.~ 4.a.u.h.h.j.h.k.k.~ ~ >.k.:.4.8.9.8.x.h.j.u.i.i.t.i.t.t.i.i.u.p.",
"F.D.B.c.A.A.C.H.S.M.k.u.k.l.M.C.A.Z.n.j.l.l.x.v.u.:.a.h.>.:.:.:.u.~ a.p.u.h.h.u.>.4.:.;.4.m.v.h.i.t.I I L L L K L t.y.K t.t.t.t.",
"D.Q.P.n.M.l.l.n.a.n.M.l.H.b.l.c.a.z.n.z.C.x.h.h.~ a.h.:.:.~ ~ u.~ ! ! ~ h.~ a.k.~ :.8.b.h.i.t.I I L L K K K r.y.y.y.y.y.y.y.t.y.",
"A.A.A.B.J.m.m.H.>.b.z.h.j.l.n.A.m.n.z.k.u.h.k.a.8.:.~ >.! :.a.! >.;.~ 4.~ >.>.~ 4.4.a.i.I I K L t.y.r.I r.K r.y.K K K K K K K r.",
"m.S.A.b.j.j.j.j.z.b.M.G.l.M.M.j.z.l.l.b.:.4.4.! u.:.:.:.>.~ ~ >.W ~ ~ ! 4.Q *.8.a.i.K K t.y.y.y.y.y.K K L d d a a s s s i s a a ",
"J.A.M.G.l.8.8.l.b.l.z.B.a.l.M.z.J.m.k.h.>.:.:.,.*.Y G G S n n l F R Q -.T *.;.! I K K K K K K r.L Z a i 7 2 < < ; ; ; < ; ; : ; ",
"b.z.l.z.j.l.k.a.m.b.b.G.v.b.b.x.j.h.a.:.<.o.S S } D y b y e y y q 0 3 q b G W K L L L Z Z Z L d i 7 < < O ; < < + ; < < ; ; ; ; ",
"H.b.v.9.:.4.>.a.l.l.j.j.z.l.z.m.h.=. .S y e q e b b y e e e e q q 4 1 1 & , 2 s L L Z Z d a p 2 < ; O O - < < ; O > < O # ; ; ; ",
"j.j.h.k.l.l.x.x.b.b.v.k.8.4.:.=.o.S D y e e e e b S b q 4 & & , 0 3 1 & , , , , 5 s d d i 7 < - O O - ; < > ; O > > ; O O ; > ; ",
"9.,.;.x.:.h.j.h.j.l.l.j.k.E D b e q 3 4 & & % % 4 q e 0 , & % @ % & & & % @ o @ # @ : 5 < < < ; ; ; ; ; O O # > ; O O O O > ; - ",
"x.k.k.z.x.x.k.4.a.4.>.Q =.S y e q 3 4 , & & % % @ @ @ @ @ # # # o # # @ # @ o + o o   + O O O O O O O O - > ; O O O O X O ; ; ; ",
"5.:.:.h.:.a.j.l.j.j.a.Q  .} S S b q 3 3 3 3 1 1 , , , 1 1 , < 1 1 , , , , > # o           + O - ; - ; ; O O O O O X O # > ; ; - ",
"v.,.,.4.=.;.>.3.:.3.=.G D D D b b y e w w q q 5 q 7 f z x m F F U F m F F l w < # o   .     + @ O O O O O O o X X # , , o o O O ",
"c.h.~ u.:.u.a.j.j.a.*.b e b D S =.o.G H H m m m G Y T -.;.k.k.k.s.;.s.B.k.,.U j 5 < #     .     o O O O + + + X % > % o , > # o ",
"b.,.-.:.=.*.,.2.:.=.} e q w m ,.G.H.m.>.>.4.k.N.B.B.D.D.U.D.U.D.N.A.U.U.U.B.>.T m z 7 < o   .     o X + X + + O O O o o @ o     ",
"h.l.l.a.;.~ a.a.a.Y n y j G 4.U.(././.U.U.U.U.Y.(.`.].`.`.`.(.U.(._.]._.(.D.N.,.U x j w 5 @ .     X X + + O o o o o =         o ",
"k.;.,.m.*.-.-.=.-.n e b G n.U.U.(.U.(.=X=X=X[.[.[.=X,X,X,X`._.[.[.[.[.].(.U.B.s.-.Y x f 7 > o   .     X X       o X X   o @ # & ",
">.,.;.;.;.:.:.;.*.n e b >.`.5X1X9XwXhXhXhXeX9X7X5X1X1X,X`.`.[.,X=X=X[.].(.U.S.N.,.*.U M z 7 , . .   o % & 4 5 7 s z J z z z z z ",
":.~ a.a.! :.;.E =.S D %.(.5XxXzXzXnXnXnXzXhXwX9X3X=X[.[.[.[.=X=X=X=X*X[.].(.U.S.N.,.$.U G m w #     & e b D D D P P A H H A A A ",
"X.*.E =.Q ;.:.~ o.} X.L.5XhXzXnXnXnXnXnXnXvXhX0X<X,X,X,X,X,X<X1X<X<X=X=X[.(.U.K.M.>.*.%.U F z <   . & e A D D P P P P Y H H P P ",
"k.~ ! ! ! ! Q Q  . .9.'.eXxXzXnXnXmXmXmXvXcXkXpXpX0X9X7X3X<X<X<X1X1X=X[.(.U.K.G.v.3.,.*.Y G x 7 o   , z A D S =.<.6.6.6.<.o.H A ",
"%.-.-.o.;.=.*.Q  .S 9.oXeX0X4X2X+XoXXXP.L.).oX>X4X0X0X0X9X3X<X<X,X=X[.U.>.%.m b w q q w w f z f o   1 J o.X.<.6.6.6.6.6.7.2.X.H ",
"-.-.-.-.Q T E E H n 9.>X2XQ.H.w.w.2.=.=.=.8.G.P.`.3X0XeX0X9X5X=X*X[.U.>.H j w w q 3 3 4 , # 1 5 o   4  .O.1.7.7.6.6.6.2.<.1.=.H ",
"F G G U %.Y %.=.H n 9.oXP.P.XX2X4X4X5X5X1X,X,X,X,X3XwXhXhXeX,X`.U.K.N.-.Y -.>.N.S.K.J.M.=.j 5 4 @   1 S X.<.2.6.6.6.q.w.6.7.=. .",
"w.e.w.6.1. .H H n b 2.oX2XtXkXzXlXiX9X1X=X{.<X7XeXwXxXzXnXiX,X(.>.T U M T N./.].].(.D.N.>.Y m w > o 1 [ X.X.+.7.q.6.q.q.1.2.<.o.",
"I.I.I.w.6.<.=. .} S w.4XkXzXzXlXzXhX9X1X].R.R.].<XwXzXzXzXiX,XU.T v g g M N.(.[._.U.N.T c x x k q # 1 D O.X.X.<.q.q.q.1.<.<.X.o.",
" X.X.XI.e.6.<.o.X. .H.kXkXjXhXwXiXpX3X].F.V.V.T.].8XzXzXlXqX-XY.&.v p 6 p M ,.G.N.s.T v i f h k k 1 4 D ..+.+.1.q.q.q.q.7.6.<.X.",
"+X X X X|.e.6.w.e.e.'.kXzXhXeX1X*X/.3.N B T s.V.].7XaXxXaXqX<X].s.V g w 2 2 < % % < 5 5 7 p f k x 3 0 } ..@.O.+.<.7.7.<.<.6.6.<.",
"$X@XOXOX X.X^.I.I.|.2XnXnXhX3X[._.'.P.d.s.F.Y.].<X9XwXrXqX8X<X*XV.T v g w 6 2 < > < 5 5 2 7 h l F w q b } O.O.O.O.1.1.<.=.6.6.<.",
"$X%X%X@X@XOX X.X^.+XkXnXvXhXwX9X0XpX4X<X=X=X-X<X8XqXwXqXqX8X<X[.V.$.c v h f w 6 6 6 f f k x F F H j w b } } ..+.+.+.<.1.=.<.1.<.",
"yXyX$X%X%X@XOX|.|.4XkXvXzXjXiXeX9X9X7X7X3X7X7XqXwXrXrXqXqX7X<X*XV.&.c v x x N N k N N M U Y Y U G x f j | | | ..1.1.7.q.<.=.<.1.",
"VXVXyXyX$X%X#XXXoXtXvXnXzXzXjXhXwXeXeXeX0XeXqXwXaXxXaXqX8X7X<X*XU.,.V v c M M M M F F U Y $.Y Y U x j j ....| ..+.7.7.1.q.1.6.w.",
"VXVXfXfXyX$X%X+X2XtXvXnXmXmXvXzXlXhXiXiXiXwXwXaXxXxXrXqXqX8X<X*XY.s.U v v c F U U Y Y U Y Y Y Y U m l l S X.@...X.+.+.O.7.q.6.6.",
"ZXVXfXfXyXuX#X#XdXcXnXmXMXMXmXmXvXvXlXlXiXiXiXaXzXaXrXaXiXqX7X-X_.s.R c v c M U U U Y Y U Y U G F m x n S | +.1.+.1.1.+.+.7.7.<.",
"ZXVXVXVXfXuXuXtXpXjXnXMXMXmXNXmXmXnXvXzXaXaXqXqXaXrXrXaXlXbXpX<X].s.V v c v c U U T T Y %.%.U G F m x n  .X.+.O.O.1.1.+.+.1.1.1.",
"DXZXCXVXVXfXyXtX6XiXmXMXAXAXAXMXMXNXmXvXlXqX8X8XrXrXqX:X6XeX0X,XU.R i g c c c R T -.-.-.$.%.U U F m l n } | ..| ..O.O.+.O.+.<.<.",
"CXCXCXVXCXVXgXcXsXlXnXMXAXSXSXMXNXMXmXvXlXqX8X7X8X6X:X{.8XqX6X[.s.v p g c M U -.s.s.>.>.$.$.Y G F m m n y t t [ ..O.O.1.+.+.+.X.",
"VXCXCXDXCXVXgXtXbXvXmXMXAXGXAXAXAXMXmXvXhXeXeXeXqX8X6X6XqXaXwX,XV.V i p B U -.v.M.M.b.>.,.*.Y G F m l j * $ $ * [ @.@.....+.+.X.",
"DXDXCXVXfXfXyXuXcXmXmXMXAXGXGXFXFXAXMXnXlXhXwXwXeX0X0X3X4X0X0X,X(.>.M m F T ,.3.s.v.>.,.*.$.Y U H m k w $ = $ & [ ..@.@.O.O.+.7.",
"KXJXDXVXfX%X.Xq.uXcXmXMXAXFXHXHXHXAXMXnXzXjXiX0X4X4X3X,X,X*X*X*X*XJ.-.M N F Y $.-.-.T Y T %.Y G m x j 3 $ = * e { { { | ..O.@...",
"KXKXKXJX@X0.r r ..+XmXMXAXFXFXFXGXAXNXnXhX4X4X3X4XtXpX4X3X-X].*X,X(.N.-.U G G H G F F F G U G H m x l w $ $ 0 [ { { ....| ..@.+.",
"CXZX$X}.) 9 9 u r XXMXAXFXFXFXGXAXMXmXkX3X>X3XkXvXvXbXsXpX8X-X-X*XY.D.N.,.$.$.%.*.Y F F M F F m x x l w $ & e t [ [ { { { | ....",
"ZX&X0.8 9 9 9 u u XXMXAXHXHXHXFXAXMXmXnXjX4X4XpXpX8X:X:X:X:X;XR.T.T.V.s.s.&.Y $.M.M.k.T M M M x x x l j @ 0 y t [ { { { { { | | ",
"&X0.( 8 ( 8 9 9 u |.BXFXGXHXGXGXAXSXmXzX0X[.].].;X{.R.R.g.g.g.g.f.f.C V B g g g ,.S.S.,.F x x x x l l j 4 u t [ [ [ } { { { { { ",
"` ) ] ) ) r r u u ~.gXFXHXHXAXAXSXMXnXhX0X9XeXkXsXqX:X:X;XR.R.R.R.T.f.f.&.V c M R ,.>.-.F x l k l l l k e y t t t D [ [ } { { { ",
"_ _ _ _ ) 8 r u u e.uXAXGXAXAXAXNXNXnXkXiXpXjXjXbXjXsXpX8X-X;X{.;XY.T.f.&.R V U T *.-.T M k k z h k z j 0 r y t t [ [ [ [ [ [ } ",
"` ` ` ` _ ) r u 9 O.XXmXAXAXMXMXmXnXvXvXkXkXiXeXpXpXpX3X=X_.(.(.(.(.U.V.s.,.-.-.$.$.%.F l h f f z z f w 0 0 r y t t t t t t t [ ",
"` ` ` ` _ ) r u 9 e w.kXBXmXmXmXnXnXvXkXkXhXpXpX0X4X,X*X_.U.U.U.U.U.U.S.M.v.>.*.Y G m m h f f f f f 7 5 $ = $ $ $ $ $ $ $ $ $ $ ",
"` ' ' #.@.1.<.S y e n v.).*X2X2X4X4X4X2X2X2X>X>X*XoX_./.K.K.J.S.N.d.s.>.>.>.,.T F x k k z p p 7 7 7 3 # . . . . . . . = @ % 1 3 ",
"0.<.3.J.*XoXL.d.3.>.,.,.d.s.s.s.s.d.d.d.d.d.m.M.G.J.J.J.L.J.S.M.N.d.>.-.$.T U M x h h f f 7 7 7 5 5 1 @ @ & 3 5 w 5 5 5 5 < < < "
};
